# xmcd CD database file
#
# Track frame offsets:
#	150
#	22060
#	83835
#	109672
#	142562
#
# Disc length: 2414 seconds
#
# Revision: 4
# Processed by: cddbd v1.5.1PL0 Copyright (c) Steve Scherf et al.
# Submitted via: CDex 1.51
#
DISCID=32096c05
DTITLE=Curtis Fuller - Jazz...It's Magic!
DYEAR=1992
DGENRE=Jazz
TTITLE0=Two Ton
TTITLE1=Medley: It's Magic/My One and Only Love/They Didn't Believe Me
TTITLE2=Soul Station
TTITLE3=Club Car
TTITLE4=Upper Berth
EXTD=YEAR: 1992
EXTT0=
EXTT1=
EXTT2=
EXTT3=
EXTT4=
PLAYORDER=
